<svg width="42" height="40" viewBox="0 0 42 40" fill="none" xmlns="http://www.w3.org/2000/svg">
<path d="M14.5801 10.4102C17.4548 10.4102 19.7852 8.07976 19.7852 5.20508C19.7852 2.33039 17.4548 0 14.5801 0C11.7054 0 9.375 2.33039 9.375 5.20508C9.375 8.07976 11.7054 10.4102 14.5801 10.4102Z" fill="white"/>
<path d="M27.0801 10.4102C29.9548 10.4102 32.2852 8.07976 32.2852 5.20508C32.2852 2.33039 29.9548 0 27.0801 0C24.2054 0 21.875 2.33039 21.875 5.20508C21.875 8.07976 24.2054 10.4102 27.0801 10.4102Z" fill="white"/>
<path d="M5.20508 18.7432C8.07976 18.7432 10.4102 16.4128 10.4102 13.5381C10.4102 10.6634 8.07976 8.33301 5.20508 8.33301C2.33039 8.33301 0 10.6634 0 13.5381C0 16.4128 2.33039 18.7432 5.20508 18.7432Z" fill="white"/>
<path d="M36.4551 18.7432C39.3298 18.7432 41.6602 16.4128 41.6602 13.5381C41.6602 10.6634 39.3298 8.33301 36.4551 8.33301C33.5804 8.33301 31.25 10.6634 31.25 13.5381C31.25 16.4128 33.5804 18.7432 36.4551 18.7432Z" fill="white"/>
<path d="M37.0039 35.7637C36.1348 37.7012 34.6074 39.0732 32.5303 39.5361C32.2744 39.5928 31.8828 39.6006 31.3555 39.5596C30.7975 39.516 30.265 39.4616 29.7578 39.3965C28.623 39.2507 27.4564 39.1048 26.2578 38.959C23.1133 38.5762 20.0186 38.5251 16.9736 38.8057C15.624 38.93 14.1016 39.1071 12.4063 39.3369C11.6842 39.4352 11.001 39.5098 10.3564 39.5606C9.81543 39.6035 9.30567 39.6104 8.78223 39.4639C6.70215 38.8818 5.30371 37.4473 4.48828 35.4893C4.27083 34.9671 4.15788 34.4365 4.14941 33.8975C4.0918 30.377 6.63281 27.7256 9.00098 25.4131C9.43978 24.9847 9.861 24.5326 10.2646 24.0566C11.7627 22.2943 13.293 20.4961 14.8555 18.6621C15.7979 17.5557 16.9434 16.5352 18.2881 15.9922C19.3047 15.582 20.3447 15.5957 21.5078 15.6289C22.0889 15.6465 22.6104 15.6973 23.1611 15.8994C24.6436 16.4404 25.8193 17.5068 26.8242 18.6807C28.4095 20.5342 29.9486 22.3421 31.4414 24.1045C31.834 24.5674 32.2507 25.0137 32.6914 25.4434C35.2031 27.8887 38.0068 30.9033 37.3789 34.7051C37.3398 34.9408 37.2148 35.2936 37.0039 35.7637Z" fill="white"/>
</svg>
